<svg xmlns="http://www.w3.org/2000/svg" viewBox="0 0 216.82 207"><title>computer</title><path d="M178,172.44c14,0,22.18-16,36.84-23.37" style="fill:none;stroke:#1d1d1b;stroke-linecap:round;stroke-miterlimit:10;stroke-width:4px"/><path d="M122,60.61l-4.77,9.67s-.26,21.15-.77,22.18S105,91.31,105,91.31v6.06s-2.84.64-3.61,1.68-6.45,11.74-10.45,12.38-16.38-10.06-18.7-13.8l-8.77,14.57S42.82,103,38.56,92.86c0,0,20.77-32.63,21-48.63s8.25-42,38.82-34.82S131,44.88,122,60.61Z" style="fill:#f9e4d7;stroke:#1d1d1b;stroke-linecap:round;stroke-miterlimit:10"/><path d="M108.18,50.46s4.58-1.81,4.22,2" style="fill:none;stroke:#1d1d1b;stroke-linecap:round;stroke-miterlimit:10"/><path d="M60,61.73c.77,6.45,6.62,8.68,10,5.16,0,0-2.79,7.35-7,5.2C60.71,71,60,61.73,60,61.73Z" style="fill:#f9bd95"/><path d="M72.23,97.63C69.86,95,61.79,87.7,59.89,76.87l-.57,26.53,6.32,5.16Z" style="fill:#f9bd95"/><path d="M99.78,37.74s20.8,13.68,20.72,25.93c0,0,11.27-3.74,14.71-9.76s-5.68-35.6-14.79-43.17S86.71-.78,79.66,7.13c0,0-1.38-3.27-7.22-.34s-14.27,12.55-15.13,21,5.43,16.31-1.23,31.12c0,0,7.59-12,16.19-11.17s4.3,14.62,4.3,14.62l2.75-1s6.54-15.48,8.43-17.54S96.52,41,99.78,37.74Z" style="fill:#3c3c3b;stroke:#1d1d1b;stroke-linecap:round;stroke-miterlimit:10"/><path d="M76.65,53.31s-.6-7.05-6.54-6.45S59.2,55.28,60,61.73s6.62,8.68,10,5.16" style="fill:#f9e4d7;stroke:#1d1d1b;stroke-linecap:round;stroke-miterlimit:10"/><path d="M65.3,55.71c2.92-2.41,4.64-2.76,5.25,2s-2.92,7-4.64,4.47" style="fill:none;stroke:#1d1d1b;stroke-linecap:round;stroke-miterlimit:10"/><path d="M70.55,57.69s-1.81-.94-4.3,1.64" style="fill:none;stroke:#1d1d1b;stroke-linecap:round;stroke-miterlimit:10"/><path d="M98.6,97.31c-.84.58-10.18-5.65-10.64-6.71a3.81,3.81,0,0,1,0-3" style="fill:none;stroke:#1d1d1b;stroke-linecap:round;stroke-miterlimit:10"/><ellipse cx="101.18" cy="62.81" rx="11.54" ry="7.94" transform="translate(-2.97 120.55) rotate(-60.83)" style="fill:#fff;stroke:#1d1d1b;stroke-linecap:round;stroke-miterlimit:10"/><ellipse cx="118.78" cy="68.56" rx="6.41" ry="2.36" transform="translate(1.03 138.87) rotate(-60.83)" style="fill:#fff;stroke:#1d1d1b;stroke-linecap:round;stroke-miterlimit:10"/><path d="M108,66.91c1.95,2.28,3-1.09,5.55-.36s2.33,2.65,2.33,2.65" style="fill:none;stroke:#1d1d1b;stroke-linecap:round;stroke-miterlimit:10;stroke-width:2px"/><path d="M72.23,97.63C69.86,95,61.79,87.7,59.89,76.87" style="fill:none;stroke:#1d1d1b;stroke-linecap:round;stroke-miterlimit:10"/><path d="M106.74,156.38S94.28,143,90.15,140.58c0,0,.77-17.67-4.77-25s-17.54-12.77-22.31-13.67-8.3-16.54-18.53-19.11S29,81.64,22.83,90.28,2.06,132.07,2.06,132.07v31.18l32.55,9.32Z" style="fill:#fd0;stroke:#1d1d1b;stroke-linecap:round;stroke-miterlimit:10"/><path d="M69.69,103.69c2.72,1.79,3.23,4.9.93,6.45S58.6,111,55.55,99C53.31,90.23,69.69,103.69,69.69,103.69Z" style="fill:#f29100"/><path d="M74.51,129.75c1,6,3.45,18.09,6.28,18.16s-10.24,6.78-10.24,6.78Z" style="fill:#f29100"/><path d="M132.81,158.41c-2.35-1.61-2.84-4.06-3.61-6.22s-5.9-3.87-5.9-3.87c2.19-1.74,1-3.68,0-3.68a5.67,5.67,0,0,1-4-2.55c-1.32-1.77-4.1-3.84-7-3.84s-5.22,7.22-5.22,7.22c-4.45.52-16.32,3.74-21.8,3.74,0,0-14.85,12.77,0,15s12.15-1.55,20.36-1.2,8.6-4.85,10.11-4.72a11.2,11.2,0,0,0,3.74-.68c1.16,2.52-2.26,3.55-1.35,6.77s4.39,1.52,4.39,1.52a4.19,4.19,0,0,0,3.84,1.87c2.87,0,2.32-4.58,2.32-4.58s2.64,2,4.68,1.1S135.17,160,132.81,158.41ZM114.5,147.69c1.39-.31,1.29-2.82,1.29-2.82a8.11,8.11,0,0,0,3.32,2.26C117.81,146.85,114.5,147.69,114.5,147.69Z" style="fill:#f9e4d7;stroke:#1d1d1b;stroke-linecap:round;stroke-miterlimit:10"/><path d="M123.3,148.32c-2.77-.39-3.16-2.35-9.77-.35" style="fill:none;stroke:#1d1d1b;stroke-linecap:round;stroke-miterlimit:10"/><path d="M128.72,163.25a20.29,20.29,0,0,1,0-4.16c-.06-1.1-1.81-6.81-4.46-8.07a12.65,12.65,0,0,0-8.37-.61,3.32,3.32,0,0,1-2.58.3" style="fill:none;stroke:#1d1d1b;stroke-linecap:round;stroke-miterlimit:10"/><path d="M122.56,166a7,7,0,0,1,.87-4.2,12.14,12.14,0,0,1-1.7-4,15.72,15.72,0,0,1-2.2,0" style="fill:none;stroke:#1d1d1b;stroke-linecap:round;stroke-miterlimit:10"/><path d="M115.79,158.35c-1.69-.14-1.24-2-1.24-2" style="fill:none;stroke:#1d1d1b;stroke-linecap:round;stroke-miterlimit:10"/><path d="M52.42,124.78c-2.49,3.9-6.95,21.19-6.46,29.9.23,4.1,3.89,3.37,5.06,3.85,3.67,1.52-2.82,15.52-11.16,11.9s-9.29-31-9.29-31Z" style="fill:#f29100"/><path d="M53.52,121.49s-7.09,21.35-9.42,25.86S41.46,159,40.43,160.83c0,0,2.71-1,2,2.06,0,0,4.51-1.55,14.7-8.13s24-9,24-9l1.51,22.09s-18.15,15.19-24.21,21S47.2,203,35.85,204.69,19.5,196,13.49,192.95s-9.24-11.09-9-17,.21-48,7.74-63.72" style="fill:#fd0;stroke:#1d1d1b;stroke-linecap:round;stroke-miterlimit:10"/><path d="M26,174.91c.95-.46,2.09-9.36,10.05-9.29a42.74,42.74,0,0,1-4.55,5.88A13.27,13.27,0,0,1,26,174.91Z" style="fill:#f29100"/><path d="M20,163.25s10-2.27,15.95,0c0,0-1.91,1.37-6.91,1.81A17.31,17.31,0,0,1,20,163.25Z" style="fill:#f29100"/><path d="M73.64,147.08s-5.89,9.42-5.56,16.17-1,14.63,7.75,11.43C80.42,173,73.64,147.08,73.64,147.08Z" style="fill:#f29100"/><path d="M87.25,171.73c-2.32,2.84-10.86,4.4-13.44,2s-2.75-24.64-.17-26.64,12-3.64,14.7-1.51S89.57,168.89,87.25,171.73Z" style="fill:#fd0;stroke:#1d1d1b;stroke-linecap:round;stroke-miterlimit:10"/><path d="M71.79,148.32c-.9-3.1,4.09-16.68,2.37-22.36" style="fill:none;stroke:#1d1d1b;stroke-linecap:round;stroke-miterlimit:10"/><path d="M20,163.25s9.46-2.27,15.13,0" style="fill:none;stroke:#1d1d1b;stroke-linecap:round;stroke-miterlimit:10"/><path d="M26,174.91c.86-.45,1.89-9,9.11-9" style="fill:none;stroke:#1d1d1b;stroke-linecap:round;stroke-miterlimit:10"/><path d="M47.24,83.82c8.52,4.13,12.83,21.49,12.65,26.65" style="fill:#fd0;stroke:#1d1d1b;stroke-linecap:round;stroke-miterlimit:10"/><path d="M47.24,83.82c6.5,3.32,10.61,14.3,12.06,21.52,4.62,3.31,8.12,4.39,11.32,1.71a18.2,18.2,0,0,0,2-8.9c-11.93-4-21.72-19-24.91-22.49-2.53.12-4.7,4.23-5.73,6.54C42,82.2,43.48,81.9,47.24,83.82Z" style="fill:#fd0;stroke:#1d1d1b;stroke-linecap:round;stroke-linejoin:round"/><rect x="64.01" y="177.99" width="94.28" height="1.98" style="fill:#575756;stroke:#1d1d1b;stroke-linecap:round;stroke-miterlimit:10"/><path d="M158.3,178H63.71a2.77,2.77,0,0,1-2.77-2.77h0a2.77,2.77,0,0,1,2.64-2.77l96.56-5.51a2.36,2.36,0,0,1,2.5,2.36v4.34A4.34,4.34,0,0,1,158.3,178Z" style="fill:#9c9c9b;stroke:#1d1d1b;stroke-linecap:round;stroke-miterlimit:10"/><polygon points="160.89 167.13 163.2 167.36 171.39 86.68 169.19 85.42 160.89 167.13" style="fill:#706f6f;stroke:#1d1d1b;stroke-linecap:round;stroke-miterlimit:10"/><rect x="163.75" y="86.17" width="1.29" height="80.07" transform="translate(13.58 -15.95) rotate(5.79)" style="fill:#fff;stroke:#1d1d1b;stroke-linecap:round;stroke-miterlimit:10"/><rect x="147.62" y="171.02" width="8.64" height="1.93" rx="0.97" ry="0.97" style="fill:#3c3c3b;stroke:#1d1d1b;stroke-linecap:round;stroke-miterlimit:10"/><rect x="135.1" y="171.02" width="8.64" height="1.93" rx="0.97" ry="0.97" style="fill:#3c3c3b;stroke:#1d1d1b;stroke-linecap:round;stroke-miterlimit:10"/><line x1="160.89" y1="175.67" x2="64.01" y2="175.67" style="fill:none;stroke:#1d1d1b;stroke-linecap:round;stroke-miterlimit:10;stroke-width:0.5px"/><path d="M93.72,2.8c9.63,0,21.1,3.29,26.71,7.94,9.11,7.57,18.23,37.15,14.79,43.17s-14.71,9.76-14.71,9.76l-3.27,6.62s-.26,21.15-.77,22.18c-.1.2-.58.28-1.28.28A80.22,80.22,0,0,1,105,91.31v6.06s-2.84.65-3.61,1.68-6.45,11.74-10.45,12.38l-.37,0c-4.15,0-15.06-9.32-18-13.31-.13-.18-.26-.36-.36-.52L72,98l.55.2a19.45,19.45,0,0,1-1.05,6.9c5,2.46,10.56,6.14,13.85,10.51,5.55,7.35,4.77,25,4.77,25a57.15,57.15,0,0,1,7.7,6.7c3.75-.79,7.25-1.57,9.26-1.8,0,0,2.32-7.22,5.22-7.22s5.68,2.06,7,3.84a5.67,5.67,0,0,0,4,2.55c1,0,2.19,1.93,0,3.68,0,0,5.13,1.71,5.9,3.87s1.26,4.61,3.61,6.22,2.61,5,.58,5.93a2.8,2.8,0,0,1-1.18.25,6.8,6.8,0,0,1-3.49-1.34s.55,4.58-2.32,4.58a4.19,4.19,0,0,1-3.84-1.87,5,5,0,0,1-1.94.45,2.38,2.38,0,0,1-2.44-2c-.9-3.22,2.52-4.26,1.35-6.77a12.2,12.2,0,0,1-3.39.69h-.4c-1.42,0-1.92,4.74-9.29,4.74l-.77,0-1,0c-5.3,0-5.52,2-11.49,2a40.06,40.06,0,0,1-4.09-.24,25.62,25.62,0,0,1-1.45,6.31l72.51-4.13h.11a2.43,2.43,0,0,1,.65.1l8.28-81.62,2.21,1.26-8.19,80.69-1.93-.2a2.36,2.36,0,0,1,1.37,2.13v4.34A4.34,4.34,0,0,1,158.3,178v2H68.36c-3.94,3.41-7.73,6.75-9.93,8.86-6.06,5.8-11.22,14.19-22.57,15.86a16.59,16.59,0,0,1-2.43.18c-9.67,0-14.37-9.05-19.94-11.92-6-3.1-9.24-11.09-9-17,.07-1.64.12-6,.31-11.88l-2.76-.79V132.07S16.64,98.92,22.83,90.28c4.41-6.15,8.36-8.64,14-8.64a27.07,27.07,0,0,1,5.16.56h0q1.24.24,2.59.58l.06-.1a7.72,7.72,0,0,0-2.4-.5h-.25c1-2.31,3.2-6.42,5.73-6.54l.45.51C52.48,67.88,57,58,58.81,50c1.5-9.44-2.17-15.68-1.5-22.24.86-8.43,9.29-18.06,15.13-21a9.68,9.68,0,0,1,4.23-1.22,3.07,3.07,0,0,1,3,1.56c2.71-3,8-4.33,14.05-4.33m20.84,144.88h0a20.38,20.38,0,0,1,3.89-.61,3.26,3.26,0,0,1,.66.06,8.11,8.11,0,0,1-3.32-2.26s.09,2.44-1.23,2.8M93.72.8c-4.42,0-10.16.66-14,3.58a5.72,5.72,0,0,0-3-.81A11.73,11.73,0,0,0,71.55,5C65.42,8.06,56.28,18.13,55.32,27.56a31.62,31.62,0,0,0,.82,9.2c.73,3.88,1.48,7.89.7,12.87-1.37,6.1-4.71,14.4-9.69,24.07-2.3.33-4.44,2.43-6.37,6.26a26.36,26.36,0,0,0-4-.33c-6.25,0-10.76,2.75-15.59,9.48C15,97.83.83,129.9.23,131.26l-.17.38v33.11l1.45.42,1.26.36c-.08,2.69-.13,5-.17,6.82,0,1.56-.06,2.8-.09,3.48-.28,6.5,3.15,15.33,10.06,18.89a25.75,25.75,0,0,1,5.11,4.11c3.81,3.58,8.54,8,15.74,8a18.69,18.69,0,0,0,2.72-.2c9.67-1.43,15.15-7.35,20-12.58,1.26-1.36,2.45-2.64,3.68-3.82,1.82-1.74,4.95-4.54,9.3-8.3H160.3v-2.3a6.35,6.35,0,0,0,4.34-6v-4.12l.35,0,.2-2,8.19-80.69.13-1.29-1.13-.65-2.21-1.26-2.67-1.53-.31,3.06L159.1,165l-25.75,1.47a4.6,4.6,0,0,0,.88-.3,4.43,4.43,0,0,0,2.51-3.74,6.37,6.37,0,0,0-2.8-5.66c-1.44-1-1.93-2.47-2.5-4.2-.12-.35-.23-.71-.36-1.05-.66-1.85-2.87-3.24-4.73-4.12a3.81,3.81,0,0,0,0-2.44,3.3,3.3,0,0,0-3-2.31,4.09,4.09,0,0,1-2.36-1.74,11.5,11.5,0,0,0-8.6-4.64c-3.43,0-5.7,4.74-6.71,7.42-1.7.28-3.92.75-6.41,1.28l-.73.15a66.94,66.94,0,0,0-6.3-5.57c.07-4.15-.08-18.39-5.21-25.18a28,28,0,0,0-3.82-4.06c2.77,1.86,5.46,3.17,7.4,3.17a4.35,4.35,0,0,0,.69-.05c3.72-.6,7.51-6.14,11-12,.26-.43.55-.91.66-1.09a8.09,8.09,0,0,1,2.48-1L107,99V93.72a59.35,59.35,0,0,0,8.2,1c.71,0,2.38,0,3.07-1.38.23-.47.71-1.43,1-22.6l2.71-5.48c2.77-1,11.76-4.7,15-10.38,2.89-5.06-1.2-18.59-2.52-22.62S128.26,14.65,121.7,9.2c-5.87-4.87-17.63-8.4-28-8.4ZM73.93,104c.1-.39.19-.78.26-1.16,1.21,1.19,2.64,2.49,4.16,3.77-1.58-1-3.11-1.91-4.42-2.61Zm42.33,56.33.64,0a5.78,5.78,0,0,0-.65,4.66,4.84,4.84,0,0,0,1.44,2.38l-27.3,1.56q.21-.91.39-2c.85.06,1.65.08,2.39.08a18.62,18.62,0,0,0,6.76-1.12,12.78,12.78,0,0,1,4.73-.83l.93,0,.85,0c6.1,0,8.37-2.89,9.6-4.45l.22-.28Zm14.16,6.27.08-.29a6.69,6.69,0,0,0,1.13.22l-1.21.07Z" style="fill:#1d1d1b"/><rect x="124.36" y="125.56" width="80.07" height="1.29" transform="translate(22.25 277.03) rotate(-84.21)" style="fill:#fff;stroke:#1d1d1b;stroke-linecap:round;stroke-miterlimit:10"/><rect x="162.64" y="169.2" width="3.01" height="6.53" style="fill:#fff;stroke:#1d1d1b;stroke-linecap:round;stroke-miterlimit:10"/><path d="M171.94,176.48h-6.29v-7.81h6.29c1.68,0,6,1.36,6,3v1.73C178,175.12,173.62,176.48,171.94,176.48Z" style="fill:#fd0;stroke:#1d1d1b;stroke-linecap:round;stroke-miterlimit:10"/><line x1="174.94" y1="173.41" x2="174.94" y2="176.35" style="fill:none;stroke:#1d1d1b;stroke-linecap:round;stroke-miterlimit:10"/><line x1="173.44" y1="168.26" x2="173.44" y2="176.88" style="fill:none;stroke:#1d1d1b;stroke-linecap:round;stroke-miterlimit:10"/><line x1="171.94" y1="173.41" x2="171.94" y2="176.88" style="fill:none;stroke:#1d1d1b;stroke-linecap:round;stroke-miterlimit:10"/><line x1="174.94" y1="171.73" x2="174.94" y2="168.79" style="fill:none;stroke:#1d1d1b;stroke-linecap:round;stroke-miterlimit:10"/><line x1="171.94" y1="171.73" x2="171.94" y2="168.26" style="fill:none;stroke:#1d1d1b;stroke-linecap:round;stroke-miterlimit:10"/><rect x="164.56" y="171.52" width="3.08" height="1.89" style="fill:#fff;stroke:#1d1d1b;stroke-linecap:round;stroke-miterlimit:10"/></svg>