<svg xmlns="http://www.w3.org/2000/svg" viewBox="0 0 450.73 188.99"><title>satellite</title><g style="isolation:isolate"><path d="M157.72,57.37l36.7,22.79a10.49,10.49,0,0,0-9.41-.57L148.31,56.8A10.49,10.49,0,0,1,157.72,57.37Z" style="fill:#ececec;stroke:#1d1d1b;stroke-miterlimit:10;stroke-width:0.9978023187506px"/><path d="M178.68,105.33,142,82.54a10.33,10.33,0,0,1-4.63-7.84c-.85-7.27,4.05-15.28,11-17.9L185,79.59c-6.9,2.62-11.81,10.64-11,17.9A10.33,10.33,0,0,0,178.68,105.33Z" style="fill:#ececec;stroke:#1d1d1b;stroke-miterlimit:10;stroke-width:0.9978023187506px"/><path d="M185,79.59c6.9-2.62,13.19,1.14,14,8.41s-4.05,15.28-11,17.9-13.19-1.14-14-8.41S178.11,82.21,185,79.59Z" style="fill:#fff;stroke:#1d1d1b;stroke-miterlimit:10;stroke-width:0.9978023187506px"/></g><g style="isolation:isolate"><path d="M183.55,56.77l12.92,7.84c-5.43-3.37-12.54-4-20-1.22l-12.92-7.84C171,52.72,178.12,53.4,183.55,56.77Z" style="fill:#fd0;stroke:#1d1d1b;stroke-miterlimit:10;stroke-width:0.9978023187506px"/><path d="M163.05,118.05l-12.92-7.84c-5.25-3.26-8.93-9.05-9.82-16.64-1.81-15.43,8.61-32.45,23.26-38l12.92,7.84c-14.65,5.57-25.07,22.59-23.26,38C154.12,109,157.8,114.79,163.05,118.05Z" style="fill:#fd0;stroke:#1d1d1b;stroke-miterlimit:10;stroke-width:0.9978023187506px"/><path d="M176.49,63.39c14.65-5.57,28,2.43,29.81,17.86s-8.61,32.45-23.26,38-28-2.43-29.81-17.86S161.84,69,176.49,63.39Z" style="fill:#b1b1b1;stroke:#1d1d1b;stroke-miterlimit:10;stroke-width:0.9978023187506px"/></g><line x1="162.56" y1="73.41" x2="149.64" y2="65.57" style="fill:none;stroke:#1d1d1b;stroke-miterlimit:10;stroke-width:0.9978023187506px"/><line x1="155.16" y1="86.34" x2="142.24" y2="78.49" style="fill:none;stroke:#1d1d1b;stroke-miterlimit:10;stroke-width:0.9978023187506px"/><line x1="153.06" y1="99.75" x2="140.14" y2="91.91" style="fill:none;stroke:#1d1d1b;stroke-miterlimit:10;stroke-width:0.9978023187506px"/><line x1="157.02" y1="112.16" x2="144.05" y2="104.29" style="fill:none;stroke:#1d1d1b;stroke-miterlimit:10;stroke-width:0.9978023187506px"/><path d="M198.09,107l6.59-30.63-7.19-9.35c-5.14-3.19-11.87-3.83-18.92-1.15-13.88,5.27-23.74,21.39-22,36,.84,7.19,4.33,12.67,9.3,15.76l15,4Z" style="fill:#ececec;stroke:#1d1d1b;stroke-miterlimit:10;stroke-width:0.9978023187506px"/><path d="M186.94,74.42c-12.13,4.61-20.75,18.7-19.25,31.47s12.54,19.39,24.67,14.78S213.1,102,211.61,89.2,199.07,69.82,186.94,74.42Z" style="fill:#b1b1b1;stroke:#1d1d1b;stroke-miterlimit:10;stroke-width:0.9978023187506px"/><g style="isolation:isolate"><path d="M204.81,76.32l62.58,38.86c-4.36-2.71-10.07-3.25-16-1L188.77,75.34C194.74,73.07,200.45,73.61,204.81,76.32Z" style="fill:#fd0;stroke:#1d1d1b;stroke-miterlimit:10;stroke-width:0.9978023187506px"/><path d="M240.56,158.09,178,119.23c-4.22-2.62-7.17-7.27-7.89-13.36-1.45-12.39,6.91-26.06,18.68-30.53l62.58,38.86c-11.77,4.47-20.13,18.14-18.68,30.53C233.38,150.82,236.34,155.47,240.56,158.09Z" style="fill:#fd0;stroke:#1d1d1b;stroke-miterlimit:10;stroke-width:0.9978023187506px"/><path d="M251.35,114.2c11.77-4.47,22.48,2,23.93,14.34s-6.91,26.05-18.68,30.52-22.48-1.95-23.94-14.34S239.58,118.67,251.35,114.2Z" style="fill:#b1b1b1;stroke:#1d1d1b;stroke-miterlimit:10;stroke-width:0.9978023187506px"/></g><g style="isolation:isolate"><path d="M267.93,117l9.58,5.81c-4-2.5-9.29-3-14.81-.9l-9.58-5.81C258.63,114,263.9,114.52,267.93,117Z" style="fill:#fd0;stroke:#1d1d1b;stroke-miterlimit:10;stroke-width:0.9978023187506px"/><path d="M252.73,162.46l-9.58-5.81c-3.9-2.42-6.62-6.71-7.28-12.34-1.34-11.44,6.38-24.06,17.25-28.19l9.58,5.81c-10.86,4.13-18.59,16.75-17.25,28.19C246.11,155.75,248.83,160,252.73,162.46Z" style="fill:#fd0;stroke:#1d1d1b;stroke-miterlimit:10;stroke-width:0.9978023187506px"/><path d="M262.69,121.93c10.86-4.13,20.76,1.8,22.1,13.24s-6.38,24.06-17.25,28.18-20.76-1.8-22.1-13.24S251.83,126.06,262.69,121.93Z" style="fill:#b1b1b1;stroke:#1d1d1b;stroke-miterlimit:10;stroke-width:0.9978023187506px"/></g><line x1="252.37" y1="129.36" x2="242.79" y2="123.55" style="fill:none;stroke:#1d1d1b;stroke-miterlimit:10;stroke-width:0.9978023187506px"/><line x1="246.88" y1="138.94" x2="237.3" y2="133.13" style="fill:none;stroke:#1d1d1b;stroke-miterlimit:10;stroke-width:0.9978023187506px"/><line x1="245.32" y1="148.89" x2="235.75" y2="143.07" style="fill:none;stroke:#1d1d1b;stroke-miterlimit:10;stroke-width:0.9978023187506px"/><line x1="248.26" y1="158.09" x2="238.65" y2="152.25" style="fill:none;stroke:#1d1d1b;stroke-miterlimit:10;stroke-width:0.9978023187506px"/><g style="isolation:isolate"><path d="M286.32,122.2s-17.23-.28-22.32,1.65c-10,3.8-17.13,15.44-15.9,26,.61,5.19,12.7,20.79,12.7,20.79s11.4-20.71,21.42-24.51C287.31,144.18,286.32,122.2,286.32,122.2Z" style="fill:#ececec;stroke:#1d1d1b;stroke-miterlimit:10;stroke-width:0.9978023187506px"/><path d="M275.94,123.69c13.22-5,25.26,2.19,26.89,16.11s-7.76,29.27-21,34.29S256.59,171.9,255,158,262.72,128.71,275.94,123.69Z" style="fill:#d9d9d9;stroke:#1d1d1b;stroke-miterlimit:10;stroke-width:0.9978023187506px"/><path d="M277,126.31c11.76-4.47,22.47,2,23.92,14.33s-6.91,26-18.67,30.51-22.47-1.95-23.92-14.33S265.19,130.78,277,126.31Z" style="fill:#fff;stroke:#1d1d1b;stroke-miterlimit:10;stroke-width:0.9978023187506px"/><path d="M278.13,130.33c9.57-3.64,18.29,1.59,19.47,11.67s-5.62,21.2-15.2,24.84-18.29-1.59-19.48-11.67S268.55,134,278.13,130.33Z" style="fill:#c5c5c5;stroke:#1d1d1b;stroke-miterlimit:10;stroke-width:0.9978023187506px"/><path d="M278.63,132.59c8.36-3.18,16,1.39,17,10.19s-4.91,18.51-13.27,21.69-16-1.39-17-10.19S270.27,135.76,278.63,132.59Z" style="fill:#3c3c3b;stroke:#1d1d1b;stroke-miterlimit:10;stroke-width:0.9978023187506px"/></g><path d="M172.77,53.78a20.28,20.28,0,0,1,10.78,3l12.64,7.67,0,0,.23.14-.12-.07a20.86,20.86,0,0,1,9,12.12l62,38.52-.11-.06a15.79,15.79,0,0,1,4.58,4.29l4.8,2.91c2-.07,3.95-.11,5.55-.12q1-.1,2-.1a20.05,20.05,0,0,1,2,.1h.06c8.64.91,15.32,7.48,16.51,17.59,1.63,13.92-7.76,29.27-21,34.29a23.36,23.36,0,0,1-8.29,1.6,17.93,17.93,0,0,1-12.75-5.06h0A18.65,18.65,0,0,1,257.4,166c-.48-.67-1-1.39-1.52-2.14a14.37,14.37,0,0,1-3.81-1.92c.22.16.43.33.66.47l-3.3-2h-.21a16.15,16.15,0,0,1-9.38-2.88c.24.17.47.35.72.51l-58.2-36.14a16.87,16.87,0,0,1-3.35-.79l-1.52-.41a23.81,23.81,0,0,1-3.64.28,20.23,20.23,0,0,1-11.17-3.23l.37.25-12.92-7.84c-5.25-3.26-8.93-9.05-9.82-16.64a32.82,32.82,0,0,1,.81-11.65,10.58,10.58,0,0,1-3.76-7.22c-.85-7.27,4.05-15.28,11-17.9a12.2,12.2,0,0,1,4.33-.83,9.55,9.55,0,0,1,5.08,1.41l.93.57a31.7,31.7,0,0,1,4.92-2.39,25.91,25.91,0,0,1,9.2-1.77M196.46,64.6h0M172.77,51.79v0a27.88,27.88,0,0,0-9.91,1.9,33.23,33.23,0,0,0-4.17,1.93,11.61,11.61,0,0,0-6-1.65,14.18,14.18,0,0,0-5,1c-7.69,2.92-13.18,11.89-12.23,20a12.94,12.94,0,0,0,3.53,7.69,34.33,34.33,0,0,0-.58,11.18c.93,7.95,4.75,14.38,10.75,18.1L162,119.76h0A22.37,22.37,0,0,0,173.84,123a25.8,25.8,0,0,0,3.52-.25l1.06.28a18.86,18.86,0,0,0,3.24.8l57.84,35.92v0a18.26,18.26,0,0,0,9.35,2.69l2.82,1.71v0a16.37,16.37,0,0,0,2.91,1.43l1.09,1.53a20.66,20.66,0,0,0,3.59,4.82l1.66,2.19.31-.48a20.23,20.23,0,0,0,12.3,4,25.34,25.34,0,0,0,9-1.73c14-5.32,24-21.64,22.25-36.39-1.18-10.1-7.62-17.42-16.6-19.1v-.22l-1.81,0c-.71-.07-1.44-.11-2.16-.11s-1.41,0-2.12.1c-1.69,0-3.35,0-4.92.1l-4-2.4a17.69,17.69,0,0,0-4.79-4.42h0L207,75.35a22.62,22.62,0,0,0-9.52-12.43h0l0,0h0l-.23-.14h0l0,0-12.63-7.67a22.37,22.37,0,0,0-11.82-3.28Z" style="fill:#1d1d1b"/><line x1="234.58" y1="80.98" x2="226.75" y2="91.7" style="fill:none;stroke:#1d1d1b;stroke-linecap:round;stroke-miterlimit:10;stroke-width:0.9978023187506px"/><line x1="189.54" y1="100.17" x2="202.99" y2="100.85" style="fill:none;stroke:#1d1d1b;stroke-linecap:round;stroke-miterlimit:10;stroke-width:0.9978023187506px"/><line x1="257.96" y1="96.16" x2="250.13" y2="106.88" style="fill:none;stroke:#1d1d1b;stroke-linecap:round;stroke-miterlimit:10;stroke-width:0.9978023187506px"/><line x1="212.92" y1="115.35" x2="226.37" y2="116.03" style="fill:none;stroke:#1d1d1b;stroke-linecap:round;stroke-miterlimit:10;stroke-width:0.9978023187506px"/><polygon points="226.75 128.12 44.55 188 1 150.1 183.19 90.22 226.75 128.12" style="fill:#f29100;stroke:#1d1d1b;stroke-linecap:round;stroke-linejoin:round;stroke-width:1.9956046375012px"/><line x1="227.02" y1="127.81" x2="182.93" y2="90.53" style="fill:#575756;stroke:#1d1d1b;stroke-miterlimit:10;stroke-width:0.9978023187506px"/><line x1="200.95" y1="136.4" x2="156.94" y2="99.04" style="fill:#575756;stroke:#1d1d1b;stroke-miterlimit:10;stroke-width:0.9978023187506px"/><line x1="174.89" y1="145" x2="130.95" y2="107.55" style="fill:#575756;stroke:#1d1d1b;stroke-miterlimit:10;stroke-width:0.9978023187506px"/><line x1="148.82" y1="153.6" x2="104.96" y2="116.06" style="fill:#575756;stroke:#1d1d1b;stroke-miterlimit:10;stroke-width:0.9978023187506px"/><line x1="122.75" y1="162.2" x2="78.97" y2="124.57" style="fill:#575756;stroke:#1d1d1b;stroke-miterlimit:10;stroke-width:0.9978023187506px"/><line x1="96.69" y1="170.8" x2="52.98" y2="133.08" style="fill:#575756;stroke:#1d1d1b;stroke-miterlimit:10;stroke-width:0.9978023187506px"/><line x1="70.62" y1="179.4" x2="26.99" y2="141.59" style="fill:#575756;stroke:#1d1d1b;stroke-miterlimit:10;stroke-width:0.9978023187506px"/><line x1="44.55" y1="188" x2="1" y2="150.1" style="fill:#575756;stroke:#1d1d1b;stroke-miterlimit:10;stroke-width:0.9978023187506px"/><line x1="22.78" y1="167.61" x2="204.97" y2="107.73" style="fill:none;stroke:#1d1d1b;stroke-miterlimit:10;stroke-width:0.9978023187506px"/><polygon points="449.73 50.63 267.54 110.51 223.98 72.62 406.18 12.74 449.73 50.63" style="fill:#f29100;stroke:#1d1d1b;stroke-linecap:round;stroke-linejoin:round;stroke-width:1.9956046375012px"/><line x1="450" y1="50.32" x2="405.91" y2="13.04" style="fill:#575756;stroke:#1d1d1b;stroke-miterlimit:10;stroke-width:0.9978023187506px"/><line x1="423.93" y1="58.92" x2="379.92" y2="21.55" style="fill:#575756;stroke:#1d1d1b;stroke-miterlimit:10;stroke-width:0.9978023187506px"/><line x1="397.87" y1="67.52" x2="353.93" y2="30.06" style="fill:#575756;stroke:#1d1d1b;stroke-miterlimit:10;stroke-width:0.9978023187506px"/><line x1="371.8" y1="76.12" x2="327.94" y2="38.58" style="fill:#575756;stroke:#1d1d1b;stroke-miterlimit:10;stroke-width:0.9978023187506px"/><line x1="345.73" y1="84.72" x2="301.95" y2="47.09" style="fill:#575756;stroke:#1d1d1b;stroke-miterlimit:10;stroke-width:0.9978023187506px"/><line x1="319.67" y1="93.32" x2="275.96" y2="55.6" style="fill:#575756;stroke:#1d1d1b;stroke-miterlimit:10;stroke-width:0.9978023187506px"/><line x1="293.6" y1="101.92" x2="249.97" y2="64.11" style="fill:#575756;stroke:#1d1d1b;stroke-miterlimit:10;stroke-width:0.9978023187506px"/><line x1="267.53" y1="110.51" x2="223.98" y2="72.62" style="fill:#575756;stroke:#1d1d1b;stroke-miterlimit:10;stroke-width:0.9978023187506px"/><line x1="245.76" y1="90.13" x2="427.95" y2="30.25" style="fill:none;stroke:#1d1d1b;stroke-miterlimit:10;stroke-width:0.9978023187506px"/><path d="M179.23,29.2s4.87-1.51,12,.4,10.61,5.65,10.61,5.65" style="fill:none;stroke:#1d1d1b;stroke-linecap:round;stroke-miterlimit:10;stroke-width:3.9912092750024px"/><path d="M176.29,16.17s7.3-2.3,18.39.66,16.26,8.6,16.26,8.6" style="fill:none;stroke:#1d1d1b;stroke-linecap:round;stroke-miterlimit:10;stroke-width:3.9912092750024px"/><path d="M173.35,3.14s9.74-3.1,24.76.91S220,15.6,220,15.6" style="fill:none;stroke:#1d1d1b;stroke-linecap:round;stroke-miterlimit:10;stroke-width:3.9912092750024px"/></svg>